<svg width="102" height="102" viewBox="0 0 1080 1080" fill="none" xmlns="http://www.w3.org/2000/svg">
<g clip-path="url(#clip0_2_600)">
<rect width="1080" height="1080" fill="url(#paint0_linear_2_600)"/>
<path d="M1100 1009.63L1001.42 908.441L904.982 809.441L804.305 878.811L785.577 768.91L774.163 702.289L764.752 647.128L722.916 401.562L702.51 -138.814V-139H635.283L451.354 115.464H451.26V115.558L388.506 496.416L321.745 550.085L311.356 558.471L510.707 630.03L580.542 649.924L601.647 713.703L630.858 801.848L668.687 915.942L674.79 934.251L729.159 1034.6L729.252 1034.69L820.704 1051.93L872.557 1061.62L1100 1104.44V1009.63Z" fill="url(#paint1_linear_2_600)"/>
<path opacity="0.3" d="M667.01 461.707L580.542 560.194L592.842 609.531L600.436 639.953L311.356 558.471L321.745 550.085L388.506 496.415L572.017 505.034L714.437 407.758L667.01 461.707Z" fill="url(#paint2_linear_2_600)"/>
<path opacity="0.3" d="M371.874 1291.91L353.565 1285.57L315.269 926.331L342.057 908.441L371.874 1291.91Z" fill="url(#paint3_linear_2_600)"/>
<path opacity="0.2" d="M879.452 908.441L872.557 1061.62L861.329 1308.49H860.537L833.423 1294.19L820.704 1051.93L813.716 919.25H813.809L879.452 908.441Z" fill="url(#paint4_linear_2_600)"/>
<path fill-rule="evenodd" clip-rule="evenodd" d="M702.603 -139L702.51 -138.814L572.016 179.011L451.353 115.464H451.26L621.167 -139H702.603Z" fill="#E8E8F9"/>
<mask id="mask0_2_600" style="mask-type:luminance" maskUnits="userSpaceOnUse" x="-5" y="751" width="316" height="82">
<path d="M32.1296 763.189C22.5366 763.649 13.0156 765.565 3.99059 768.852C-0.607407 770.526 -5.93741 774.114 -4.85941 778.888C-3.69641 784.039 3.34359 784.554 8.59859 784.042C19.2656 783.002 30.1966 782.612 40.5396 785.421C55.2156 789.407 68.8896 799.762 83.9546 797.69C92.9176 796.457 101.335 790.815 110.297 792.057C115.659 792.8 120.506 795.976 125.905 796.376C130.249 796.698 134.489 795.192 138.674 793.984C154.113 789.526 170.658 788.953 186.368 792.332C198.778 795.001 211.92 800.043 223.665 795.228C228.063 793.425 235.163 792.249 237.635 796.309C241.199 802.164 235.541 813.584 243.546 813.584C251.552 813.584 243.726 795.937 251.967 795.937C260.207 795.937 250.024 834.072 261.82 832.714C271.346 831.617 259.359 796.055 269.712 796.055C280.065 796.055 269.627 813.706 277.18 813.706C284.732 813.706 277.267 790.941 288.042 790.624C311.124 789.945 311.324 783.39 310.322 780.917C309.71 779.408 308.148 778.538 306.666 777.864C297.001 773.469 285.867 772.285 277.095 766.305C272.584 763.23 268.921 759.019 264.325 756.071C252.401 748.424 236.766 750.658 223.199 754.731C209.632 758.803 195.92 764.508 181.842 762.935C173.712 762.026 166.026 758.715 157.941 757.471C133.601 753.726 109.923 768.958 85.3096 768.17C74.1126 767.812 63.3106 764.145 52.2526 762.351C41.1946 760.558 15.5316 763.423 3.99059 768.854" fill="white"/>
</mask>
<g mask="url(#mask0_2_600)">
<path d="M32.1296 763.189C22.5366 763.649 13.0156 765.565 3.99059 768.852C-0.607407 770.526 -5.93741 774.114 -4.85941 778.888C-3.69641 784.039 3.34359 784.554 8.59859 784.042C19.2656 783.002 30.1966 782.612 40.5396 785.421C55.2156 789.407 68.8896 799.762 83.9546 797.69C92.9176 796.457 101.335 790.815 110.297 792.057C115.659 792.8 120.506 795.976 125.905 796.376C130.249 796.698 134.489 795.192 138.674 793.984C154.113 789.526 170.658 788.953 186.368 792.332C198.778 795.001 211.92 800.043 223.665 795.228C228.063 793.425 235.163 792.249 237.635 796.309C241.199 802.164 235.541 813.584 243.546 813.584C251.552 813.584 243.726 795.937 251.967 795.937C260.207 795.937 250.024 834.072 261.82 832.714C271.346 831.617 259.359 796.055 269.712 796.055C280.065 796.055 269.627 813.706 277.18 813.706C284.732 813.706 277.267 790.941 288.042 790.624C311.124 789.945 311.324 783.39 310.322 780.917C309.71 779.408 308.148 778.538 306.666 777.864C297.001 773.469 285.867 772.285 277.095 766.305C272.584 763.23 268.921 759.019 264.325 756.071C252.401 748.424 236.766 750.658 223.199 754.731C209.632 758.803 195.92 764.508 181.842 762.935C173.712 762.026 166.026 758.715 157.941 757.471C133.601 753.726 109.923 768.958 85.3096 768.17C74.1126 767.812 63.3106 764.145 52.2526 762.351C41.1946 760.558 15.5316 763.423 3.99059 768.854" fill="white"/>
</g>
<mask id="mask1_2_600" style="mask-type:luminance" maskUnits="userSpaceOnUse" x="-5" y="751" width="316" height="82">
<path d="M32.1296 763.189C22.5366 763.649 13.0156 765.565 3.99059 768.852C-0.607407 770.526 -5.93741 774.114 -4.85941 778.888C-3.69641 784.039 3.34359 784.554 8.59859 784.042C19.2656 783.002 30.1966 782.612 40.5396 785.421C55.2156 789.407 68.8896 799.762 83.9546 797.69C92.9176 796.457 101.335 790.815 110.297 792.057C115.659 792.8 120.506 795.976 125.905 796.376C130.249 796.698 134.489 795.192 138.674 793.984C154.113 789.526 170.658 788.953 186.368 792.332C198.778 795.001 211.92 800.043 223.665 795.228C228.063 793.425 235.163 792.249 237.635 796.309C241.199 802.164 235.541 813.584 243.546 813.584C251.552 813.584 243.726 795.937 251.967 795.937C260.207 795.937 250.024 834.072 261.82 832.714C271.346 831.617 259.359 796.055 269.712 796.055C280.065 796.055 269.627 813.706 277.18 813.706C284.732 813.706 277.267 790.941 288.042 790.624C311.124 789.945 311.324 783.39 310.322 780.917C309.71 779.408 308.148 778.538 306.666 777.864C297.001 773.469 285.867 772.285 277.095 766.305C272.584 763.23 268.921 759.019 264.325 756.071C252.401 748.424 236.766 750.658 223.199 754.731C209.632 758.803 195.92 764.508 181.842 762.935C173.712 762.026 166.026 758.715 157.941 757.471C133.601 753.726 109.923 768.958 85.3096 768.17C74.1126 767.812 63.3106 764.145 52.2526 762.351C41.1946 760.558 15.5316 763.423 3.99059 768.854" fill="white"/>
</mask>
<g mask="url(#mask1_2_600)">
<g opacity="0.3">
<path d="M-4.45936 771.366C-10.7124 777.705 -4.59336 785.394 2.14764 788.104C6.85864 789.998 11.8866 789.701 16.8136 789.057C23.5746 788.173 29.7256 787.726 36.4086 789.427C46.7876 792.069 56.2526 797.357 66.5466 800.261C71.3596 801.619 76.5636 802.626 81.5796 802.181C86.7316 801.724 91.4576 799.701 96.2476 797.913C101.475 795.963 106.547 794.248 112.042 796.085C117.176 797.801 121.593 800.147 127.157 799.802C138.946 799.072 149.902 793.617 161.788 793.623C183.773 793.634 204.15 805.408 226.302 799.514C227.975 799.069 230.305 797.997 232.064 798.197C234.706 798.497 234.17 799.499 234.083 801.993C233.932 806.302 234.241 810.868 237.031 814.4C240.665 819.002 248.409 818.686 251.492 813.435C253.241 810.456 252.558 806.147 252.593 802.837C252.6 802.196 252.692 796.766 250.249 799C250.147 799.094 250.622 801.287 250.661 801.654C251.404 808.81 250.453 816.036 251.406 823.201C252.207 829.225 255.075 837.937 262.816 837.056C271.349 836.085 271.491 825.864 271.001 819.357C270.678 815.077 270.113 810.816 269.884 806.529C269.787 804.712 269.646 802.808 269.873 800.998C269.9 800.786 270.174 799.417 270.161 799.399C268.893 797.64 269.084 800.226 268.936 800.948C267.59 807.496 268.35 820.469 277.761 820.02C288.619 819.503 285.979 806.178 286.914 799.317C288.071 790.829 301.631 794.295 307.553 791.254C310.992 789.488 313.458 786.192 313.738 782.264C314.076 777.515 310.607 774.436 306.945 772.047C301.6 768.559 295.533 767.097 289.796 764.499C283.786 761.778 278.779 757.605 274.632 752.518C271.398 748.551 265.735 754.222 268.995 758.155C275.432 765.92 283.445 770.552 292.829 773.881C295.39 774.789 305.952 777.986 306.227 781.67C306.488 785.174 300.48 785.516 298.309 785.738C292.378 786.346 285.318 786.478 281.59 791.965C279.586 794.915 279.304 798.566 279.274 802.037C279.259 803.778 279.438 805.525 279.384 807.264C279.339 808.717 278.333 814.697 276.41 810.837C274.941 807.888 276.886 802.872 276.246 799.566C275.643 796.452 273.824 792.765 270.398 791.938C263.962 790.383 262.367 798.592 262.313 803.06C262.226 810.313 264.279 817.626 263.753 824.859C263.634 826.491 263.363 830.605 260.637 828.631C259.88 828.083 259.629 826.443 259.385 825.6C258.403 822.217 258.355 818.551 258.282 815.056C258.166 809.439 258.968 803.234 257.566 797.728C256.284 792.692 250.829 790.07 246.952 794.671C244.986 797.004 245.182 799.986 245.169 802.838C245.161 804.557 246.234 810.253 243.892 810.253C240.771 810.254 241.482 803.46 241.522 801.382C241.586 798.071 241.351 794.626 238.559 792.416C232.955 787.981 224.061 793.004 217.943 793.724C207.212 794.987 196.559 792.148 186.179 789.801C175.951 787.488 165.509 785.403 154.991 786.723C149.937 787.358 145.037 788.683 140.112 789.939C135.041 791.233 128.998 793.256 123.717 792.467C118.581 791.7 114.195 788.336 108.938 787.893C103.934 787.471 98.9216 789.152 94.3106 790.885C88.8706 792.929 83.5646 795.315 77.6226 794.954C71.8686 794.605 66.2516 792.734 60.8916 790.722C50.6596 786.881 40.7206 781.899 29.6636 780.993C23.7636 780.51 18.0826 781.914 12.2376 782.36C7.11164 782.751 -4.42436 781.043 -1.46736 773.108C-0.824357 771.38 -3.26936 770.158 -4.45936 771.366Z" fill="#336EC2"/>
</g>
</g>
<mask id="mask2_2_600" style="mask-type:luminance" maskUnits="userSpaceOnUse" x="-5" y="751" width="316" height="82">
<path d="M32.1296 763.189C22.5366 763.649 13.0156 765.565 3.99059 768.852C-0.607407 770.526 -5.93741 774.114 -4.85941 778.888C-3.69641 784.039 3.34359 784.554 8.59859 784.042C19.2656 783.002 30.1966 782.612 40.5396 785.421C55.2156 789.407 68.8896 799.762 83.9546 797.69C92.9176 796.457 101.335 790.815 110.297 792.057C115.659 792.8 120.506 795.976 125.905 796.376C130.249 796.698 134.489 795.192 138.674 793.984C154.113 789.526 170.658 788.953 186.368 792.332C198.778 795.001 211.92 800.043 223.665 795.228C228.063 793.425 235.163 792.249 237.635 796.309C241.199 802.164 235.541 813.584 243.546 813.584C251.552 813.584 243.726 795.937 251.967 795.937C260.207 795.937 250.024 834.072 261.82 832.714C271.346 831.617 259.359 796.055 269.712 796.055C280.065 796.055 269.627 813.706 277.18 813.706C284.732 813.706 277.267 790.941 288.042 790.624C311.124 789.945 311.324 783.39 310.322 780.917C309.71 779.408 308.148 778.538 306.666 777.864C297.001 773.469 285.867 772.285 277.095 766.305C272.584 763.23 268.921 759.019 264.325 756.071C252.401 748.424 236.766 750.658 223.199 754.731C209.632 758.803 195.92 764.508 181.842 762.935C173.712 762.026 166.026 758.715 157.941 757.471C133.601 753.726 109.923 768.958 85.3096 768.17C74.1126 767.812 63.3106 764.145 52.2526 762.351C41.1946 760.558 15.5316 763.423 3.99059 768.854" fill="white"/>
</mask>
<g mask="url(#mask2_2_600)">
<path opacity="0.15" d="M345.819 795.213C341.313 783.342 331.08 781.272 320.001 782.871C319.386 782.96 318.827 782.547 318.71 781.937C318.218 779.359 317.266 776.796 316.108 774.416C310.441 762.77 299.015 754.187 286.532 751.179C281.674 750.008 276.496 752.716 275.141 757.647C273.679 762.967 276.967 767.121 281.609 769.038C284.363 770.175 296.529 776.025 295.51 779.759C294.491 783.493 279.896 783.493 272.768 782.814C257.77 781.386 246.971 780.777 237.127 783.832C231.182 785.677 216.851 789.658 206.578 787.566C188.248 783.832 167.904 778.866 159.743 779.445C151.472 780.032 143.595 782.256 135.541 784.041C127.992 785.715 121.609 785.261 114.055 784.057C105.52 782.696 97.7356 783.704 89.3526 785.547C80.9276 787.398 74.3336 787.604 66.1816 784.62C58.5966 781.844 51.3826 778.051 43.3166 776.824C34.2286 775.441 25.4226 777.608 16.3526 777.138C13.4216 776.986 9.55062 776.419 7.35761 774.287C6.43161 773.387 4.59462 770.865 5.25162 769.384C9.17962 760.523 -2.20738 753.567 -7.85538 761.723C-12.3374 768.195 -11.9254 777.336 -7.54238 783.77C-2.40238 791.313 5.94562 794.528 14.7566 795.282C23.4326 796.024 32.3176 793.18 40.9026 794.893C49.3926 796.586 56.9866 801.166 65.2376 803.63C74.3846 806.362 83.2466 805.646 92.4606 803.673C96.3756 802.835 100.288 801.773 104.307 801.634C109.158 801.466 113.815 802.786 118.595 803.418C128.188 804.686 137.471 802.601 146.765 800.367C152.875 798.898 158.744 798.072 164.775 797.954C164.86 798.13 164.943 798.307 165.041 798.474C167.758 803.119 172.992 803.741 177.515 801.745C180.802 800.294 184.605 800.184 188.348 800.307C188.398 800.309 188.448 800.314 188.498 800.321C190.492 800.639 192.486 800.955 194.482 801.257C194.763 801.299 195.009 801.452 195.19 801.671C195.814 802.428 196.578 803.077 197.481 803.575C198.313 804.155 199.298 804.568 200.449 804.739C209.714 806.113 217.861 809.351 225.576 813.919C225.803 814.054 225.971 814.267 226.063 814.514C226.578 815.899 227.384 817.178 228.459 818.233C228.933 818.698 228.915 819.443 228.428 819.895C225.166 822.922 224.428 828.347 226.673 832.186C229.662 837.296 235.29 837.841 240.245 835.745C242.927 834.61 245.647 833.587 248.392 832.653C248.788 832.518 249.224 832.618 249.531 832.903C251.76 834.973 254.212 836.786 256.896 838.228C274.453 847.658 295.071 836.845 311.493 829.594C320.049 825.816 328.629 821.744 336.678 816.964C344.601 812.26 349.303 804.391 345.819 795.213ZM328.002 799.198C327.973 799.194 327.928 799.211 327.895 799.212C328.079 797.437 328.681 799.289 328.002 799.198ZM309.597 808.266C309.588 808.26 309.579 808.254 309.569 808.249C309.711 807.01 309.658 807.476 309.8 806.237C313.892 804.734 318.391 802.876 322.734 802.154C321.046 803.074 319.353 803.984 317.647 804.87C315.356 806.061 313.043 807.213 310.719 808.344C310.358 808.518 309.938 808.478 309.597 808.266ZM327.786 802.815C327.52 803.003 327.498 802.411 327.557 801.733C328.359 801.693 329.187 801.824 327.786 802.815Z" fill="#336EC2"/>
</g>
<mask id="mask3_2_600" style="mask-type:luminance" maskUnits="userSpaceOnUse" x="-5" y="751" width="316" height="82">
<path d="M32.1296 763.189C22.5366 763.649 13.0156 765.565 3.99059 768.852C-0.607407 770.526 -5.93741 774.114 -4.85941 778.888C-3.69641 784.039 3.34359 784.554 8.59859 784.042C19.2656 783.002 30.1966 782.612 40.5396 785.421C55.2156 789.407 68.8896 799.762 83.9546 797.69C92.9176 796.457 101.335 790.815 110.297 792.057C115.659 792.8 120.506 795.976 125.905 796.376C130.249 796.698 134.489 795.192 138.674 793.984C154.113 789.526 170.658 788.953 186.368 792.332C198.778 795.001 211.92 800.043 223.665 795.228C228.063 793.425 235.163 792.249 237.635 796.309C241.199 802.164 235.541 813.584 243.546 813.584C251.552 813.584 243.726 795.937 251.967 795.937C260.207 795.937 250.024 834.072 261.82 832.714C271.346 831.617 259.359 796.055 269.712 796.055C280.065 796.055 269.627 813.706 277.18 813.706C284.732 813.706 277.267 790.941 288.042 790.624C311.124 789.945 311.324 783.39 310.322 780.917C309.71 779.408 308.148 778.538 306.666 777.864C297.001 773.469 285.867 772.285 277.095 766.305C272.584 763.23 268.921 759.019 264.325 756.071C252.401 748.424 236.766 750.658 223.199 754.731C209.632 758.803 195.92 764.508 181.842 762.935C173.712 762.026 166.026 758.715 157.941 757.471C133.601 753.726 109.923 768.958 85.3096 768.17C74.1126 767.812 63.3106 764.145 52.2526 762.351C41.1946 760.558 15.5316 763.423 3.99059 768.854" fill="white"/>
</mask>
<g mask="url(#mask3_2_600)">
<g opacity="0.15">
<path d="M284.988 776.667C285.377 776.667 285.378 776.062 284.988 776.062C284.599 776.063 284.598 776.667 284.988 776.667Z" fill="#336EC2"/>
</g>
</g>
<g opacity="0.35">
<path d="M46.0246 766.491C46.8586 766.491 46.8606 765.194 46.0246 765.194C45.1896 765.194 45.1886 766.491 46.0246 766.491Z" fill="#336EC2"/>
</g>
<g opacity="0.35">
<path d="M36.8596 769.176C37.2176 769.176 37.2186 768.619 36.8596 768.619C36.5006 768.619 36.5006 769.176 36.8596 769.176Z" fill="#336EC2"/>
</g>
<g opacity="0.35">
<path d="M53.1527 770.357C53.7207 770.357 53.7217 769.474 53.1527 769.474C52.5847 769.474 52.5837 770.357 53.1527 770.357Z" fill="#336EC2"/>
</g>
<g opacity="0.15">
<path d="M115.706 778.755C115.853 778.703 115.928 778.674 116.059 778.591C116.2 778.502 116.2 778.302 116.059 778.213C115.928 778.13 115.854 778.101 115.706 778.049C115.12 777.843 115.116 778.962 115.706 778.755Z" fill="#336EC2"/>
</g>
<g opacity="0.35">
<path d="M134.618 777.874C134.813 777.874 134.813 777.572 134.618 777.572C134.423 777.572 134.423 777.874 134.618 777.874Z" fill="#336EC2"/>
</g>
<g opacity="0.35">
<path d="M150.91 761.519C151.898 761.519 151.9 759.984 150.91 759.984C149.922 759.983 149.921 761.519 150.91 761.519Z" fill="#336EC2"/>
</g>
<g opacity="0.15">
<path d="M140.048 765.885C140.539 765.885 140.54 765.121 140.048 765.121C139.557 765.121 139.556 765.885 140.048 765.885Z" fill="#336EC2"/>
</g>
<g opacity="0.15">
<path d="M160.415 767.965C160.963 767.965 160.964 767.114 160.415 767.114C159.867 767.114 159.866 767.965 160.415 767.965Z" fill="#336EC2"/>
</g>
<g opacity="0.35">
<path d="M244.111 759.054C244.108 759.167 244.103 759.281 244.095 759.393C244.032 760.473 245.837 760.475 245.774 759.393C245.766 759.28 245.761 759.167 245.758 759.054C245.72 757.995 244.149 757.993 244.111 759.054Z" fill="#336EC2"/>
</g>
<g opacity="0.15">
<path d="M251.723 756.623C252.527 756.623 252.528 755.374 251.723 755.374C250.919 755.374 250.918 756.623 251.723 756.623Z" fill="#336EC2"/>
</g>
<g opacity="0.35">
<path d="M259.191 761.053C259.58 761.053 259.581 760.448 259.191 760.448C258.802 760.449 258.801 761.053 259.191 761.053Z" fill="#336EC2"/>
</g>
<g opacity="0.35">
<path d="M207.596 775.677C208.021 775.677 208.022 775.017 207.596 775.017C207.171 775.017 207.171 775.677 207.596 775.677Z" fill="#336EC2"/>
</g>
<g opacity="0.15">
<path d="M211.67 768.908C211.879 768.916 211.967 768.895 212.148 768.795C212.326 768.696 212.326 768.42 212.148 768.321C211.967 768.221 211.88 768.2 211.67 768.208C211.219 768.226 211.219 768.891 211.67 768.908Z" fill="#336EC2"/>
</g>
<g opacity="0.3" filter="url(#filter0_f_2_600)">
<ellipse cx="496" cy="1037.5" rx="176" ry="37.5" fill="#050816"/>
</g>
<g filter="url(#filter1_d_2_600)">
<path d="M620.343 966.883C620.343 966.883 471.312 1027.22 475.884 1035.45C480.456 1043.68 510.631 1018.99 528.919 1026.3C547.192 1033.62 541.721 1062.88 552.693 1064.71C563.666 1066.54 573.725 1036.38 600.242 1042.76C626.76 1049.16 628.48 1077.49 642.707 1079.34C656.919 1081.17 690.752 1030.88 687.094 1004.37C685.762 994.687 672.464 974.198 671.55 947.696C670.651 921.194 627.659 930.322 627.659 930.322L620.343 966.883Z" fill="#E94E1B"/>
<path d="M537.133 1026.29C537.133 1026.29 542.744 1023.87 550.973 1019.93C559.234 1016.03 570.052 1010.45 580.838 1004.84C591.532 999.026 602.195 993.184 610.053 988.519C617.926 983.9 623.056 980.583 623.056 980.583C623.056 980.583 617.445 982.986 609.2 986.938C600.94 990.843 590.137 996.423 579.351 1002.03C568.657 1007.84 557.978 1013.7 550.136 1018.35C542.279 1022.99 537.133 1026.29 537.133 1026.29Z" fill="#E6332A"/>
<path d="M607.449 1045.68C607.449 1045.68 610.456 1041.88 614.64 1035.97C618.871 1030.1 624.156 1022.04 629.394 1013.97C634.462 1005.77 639.484 997.554 642.986 991.231C646.52 984.923 648.674 980.583 648.674 980.583C648.674 980.583 645.668 984.381 641.483 990.285C637.252 996.159 631.983 1004.22 626.729 1012.29C621.661 1020.49 616.639 1028.71 613.137 1035.03C609.603 1041.34 607.449 1045.68 607.449 1045.68Z" fill="#E6332A"/>
<path d="M397.587 957.816C397.587 957.816 248.555 1018.15 253.143 1026.4C257.715 1034.61 287.89 1009.94 306.162 1017.25C324.45 1024.57 318.964 1053.81 329.937 1055.64C340.91 1057.49 350.968 1027.31 377.486 1033.71C403.988 1040.1 405.723 1068.44 419.951 1070.27C434.178 1072.1 467.995 1021.82 464.338 995.307C463.005 985.62 449.707 965.132 448.793 938.614C447.879 912.112 404.902 921.24 404.902 921.24L397.587 957.816Z" fill="#E94E1B"/>
<path d="M314.377 1017.25C314.377 1017.25 319.987 1014.83 328.216 1010.9C336.477 1006.99 347.295 1001.41 358.082 995.787C368.775 989.975 379.454 984.133 387.296 979.468C395.185 974.849 400.314 971.533 400.314 971.533C400.314 971.533 394.704 973.935 386.475 977.887C378.214 981.792 367.396 987.372 356.594 992.998C345.9 998.809 335.237 1004.65 327.38 1009.32C319.522 1013.95 314.377 1017.25 314.377 1017.25Z" fill="#E6332A"/>
<path d="M384.708 1036.61C384.708 1036.61 387.714 1032.81 391.899 1026.91C396.13 1021.03 401.399 1012.97 406.653 1004.92C411.721 996.717 416.743 988.503 420.245 982.18C423.779 975.872 425.933 971.533 425.933 971.533C425.933 971.533 422.926 975.33 418.742 981.235C414.511 987.108 409.241 995.152 403.988 1003.23C398.935 1011.43 393.914 1019.64 390.411 1025.98C386.862 1032.29 384.708 1036.61 384.708 1036.61Z" fill="#E6332A"/>
<path d="M335.687 500.183C335.687 500.183 125.019 668.712 136.828 694.346C148.622 719.98 300.304 653.973 300.304 653.973L335.687 500.183Z" fill="black"/>
<path d="M844.495 729.759C883.473 904.983 708.049 995.028 532.98 995.028C357.912 995.028 223.247 894.971 236.963 720.414C247.021 592.615 343.281 504.027 331.239 419.453C314.764 303.727 420.339 209.25 526.114 209.25C660.593 209.25 729.204 291.406 726.46 407.55C724.647 484.995 815.033 597.296 844.495 729.759Z" fill="black"/>
<path d="M778.085 710.356C811.127 858.953 662.39 935.313 513.917 935.313C365.443 935.313 251.267 850.445 262.907 702.421C271.415 594.057 346.675 488.823 367.272 466.18C315.802 385.31 408.621 264.486 505.191 312.531C604.179 250.088 736.766 395.896 655.447 452.511C720.292 456.618 753.117 598.04 778.085 710.356Z" fill="white"/>
<path d="M441.493 303.526C441.493 303.526 476.21 289.903 480.487 342.892C485.121 400.375 459.099 423.669 459.099 423.669C459.099 423.669 459.053 437.772 486.237 433.82C513.421 429.852 552.849 422.646 552.849 422.646C552.849 422.646 522.58 428.737 518.566 344.937C516.505 302.147 565.914 297.265 565.914 297.265C565.914 297.265 547.657 261.572 496.311 265.695C444.981 269.817 441.493 303.526 441.493 303.526Z" fill="black"/>
<path d="M459.099 385.31C459.099 391.727 453.892 396.934 447.476 396.934C441.059 396.934 435.836 391.727 435.836 385.31C435.836 378.879 441.059 373.687 447.476 373.687C453.907 373.687 459.099 378.894 459.099 385.31Z" fill="black"/>
<path d="M554.63 381.203C554.63 387.62 549.423 392.812 543.007 392.812C536.59 392.812 531.383 387.62 531.383 381.203C531.383 374.772 536.59 369.58 543.007 369.58C549.423 369.58 554.63 374.772 554.63 381.203Z" fill="black"/>
<path d="M553.329 373.687C553.329 376.941 550.679 379.591 547.424 379.591C544.154 379.591 541.519 376.957 541.519 373.687C541.519 370.416 544.154 367.766 547.424 367.766C550.679 367.782 553.329 370.432 553.329 373.687Z" fill="white"/>
<path d="M457.705 377.809C457.705 381.064 455.054 383.714 451.784 383.714C448.53 383.714 445.879 381.079 445.879 377.809C445.879 374.539 448.514 371.904 451.784 371.904C455.054 371.904 457.705 374.539 457.705 377.809Z" fill="white"/>
<path d="M459.099 423.684C456.124 440.5 437.138 460.213 442.408 465.7C447.662 471.186 557.049 428.829 554.615 423.684C552.182 418.539 510.337 431.588 488.376 408.93C477.899 410.805 484.269 423.343 459.099 423.684Z" fill="#E94E1B"/>
<path d="M553.329 425.451C553.329 425.451 506.214 463.825 494.901 466.18C483.478 468.552 445.895 466.087 445.895 466.087C445.895 466.087 478.178 455.27 498.078 448.063C517.978 440.872 553.329 425.451 553.329 425.451Z" fill="#C74515"/>
<path d="M491.553 419.05C493.661 420.491 495.117 422.305 497.473 423.421C499.348 424.304 504.478 426.024 500.821 428.535C497.876 430.55 496.512 426.241 495.412 424.443C494.141 422.351 491.444 420.166 490.514 418.291" fill="#C74515"/>
<path d="M477.139 423.157C475.853 425.187 467.189 431.759 470.955 433.463C476.302 435.897 476.876 424.753 477.387 422.646" fill="#C74515"/>
<path d="M744.314 511.854C744.314 511.854 954.967 680.382 943.173 706.016C931.378 731.65 779.712 665.643 779.712 665.643L744.314 511.854Z" fill="black"/>
</g>
</g>
<defs>
<filter id="filter0_f_2_600" x="304" y="984" width="384" height="107" filterUnits="userSpaceOnUse" color-interpolation-filters="sRGB">
<feFlood flood-opacity="0" result="BackgroundImageFix"/>
<feBlend mode="normal" in="SourceGraphic" in2="BackgroundImageFix" result="shape"/>
<feGaussianBlur stdDeviation="8" result="effect1_foregroundBlur_2_600"/>
</filter>
<filter id="filter1_d_2_600" x="136.35" y="209.25" width="815.3" height="890.137" filterUnits="userSpaceOnUse" color-interpolation-filters="sRGB">
<feFlood flood-opacity="0" result="BackgroundImageFix"/>
<feColorMatrix in="SourceAlpha" type="matrix" values="0 0 0 0 0 0 0 0 0 0 0 0 0 0 0 0 0 0 127 0" result="hardAlpha"/>
<feOffset dx="4" dy="16"/>
<feGaussianBlur stdDeviation="2"/>
<feComposite in2="hardAlpha" operator="out"/>
<feColorMatrix type="matrix" values="0 0 0 0 0.0145833 0 0 0 0 0.0242083 0 0 0 0 0.0583333 0 0 0 0.15 0"/>
<feBlend mode="normal" in2="BackgroundImageFix" result="effect1_dropShadow_2_600"/>
<feBlend mode="normal" in="SourceGraphic" in2="effect1_dropShadow_2_600" result="shape"/>
</filter>
<linearGradient id="paint0_linear_2_600" x1="540" y1="0" x2="540" y2="1080" gradientUnits="userSpaceOnUse">
<stop stop-color="#1672BD"/>
<stop offset="1" stop-color="white"/>
</linearGradient>
<linearGradient id="paint1_linear_2_600" x1="931.787" y1="-91.8537" x2="677.584" y2="946.142" gradientUnits="userSpaceOnUse">
<stop stop-color="#AECCFB"/>
<stop offset="0.9921" stop-color="#99B6F1"/>
</linearGradient>
<linearGradient id="paint2_linear_2_600" x1="542.163" y1="363.578" x2="485.52" y2="594.869" gradientUnits="userSpaceOnUse">
<stop stop-color="#6899C3"/>
<stop offset="0.1612" stop-color="#6592BF"/>
<stop offset="0.4031" stop-color="#5D7DB3"/>
<stop offset="0.6958" stop-color="#505B9F"/>
<stop offset="1" stop-color="#403186"/>
</linearGradient>
<linearGradient id="paint3_linear_2_600" x1="390.52" y1="917.388" x2="308.594" y2="1251.92" gradientUnits="userSpaceOnUse">
<stop stop-color="#6899C3"/>
<stop offset="0.1612" stop-color="#6592BF"/>
<stop offset="0.4031" stop-color="#5D7DB3"/>
<stop offset="0.6958" stop-color="#505B9F"/>
<stop offset="1" stop-color="#403186"/>
</linearGradient>
<linearGradient id="paint4_linear_2_600" x1="846.57" y1="912.616" x2="846.57" y2="1383.69" gradientUnits="userSpaceOnUse">
<stop stop-color="#6899C3"/>
<stop offset="0.1612" stop-color="#6592BF"/>
<stop offset="0.4031" stop-color="#5D7DB3"/>
<stop offset="0.6958" stop-color="#505B9F"/>
<stop offset="1" stop-color="#403186"/>
</linearGradient>
<clipPath id="clip0_2_600">
<rect width="1080" height="1080" fill="white"/>
</clipPath>
</defs>
</svg>
